<svg width="17" height="14" viewBox="0 0 17 14" fill="none" xmlns="http://www.w3.org/2000/svg">
<path d="M5.939 0H0.99C0.727436 0 0.475625 0.104302 0.289964 0.289963C0.104303 0.475624 0 0.727434 0 0.989998L0 3.959C0 4.22156 0.104303 4.47337 0.289964 4.65903C0.475625 4.8447 0.727436 4.949 0.99 4.949C1.25256 4.949 1.50437 4.8447 1.69004 4.65903C1.8757 4.47337 1.98 4.22156 1.98 3.959V1.98H5.939C6.20156 1.98 6.45337 1.87569 6.63904 1.69003C6.8247 1.50437 6.929 1.25256 6.929 0.989998C6.929 0.727434 6.8247 0.475624 6.63904 0.289963C6.45337 0.104302 6.20156 0 5.939 0Z" fill="black"/>
<path d="M15.761 0H10.812C10.5494 0 10.2977 0.104302 10.112 0.289963C9.92634 0.475624 9.82202 0.727434 9.82202 0.989998C9.82202 1.25256 9.92634 1.50437 10.112 1.69003C10.2977 1.87569 10.5494 1.98 10.812 1.98H14.771V3.96C14.771 4.22256 14.8753 4.47437 15.061 4.66003C15.2466 4.8457 15.4985 4.95 15.761 4.95C16.0236 4.95 16.2754 4.8457 16.4611 4.66003C16.6467 4.47437 16.751 4.22256 16.751 3.96V0.989998C16.751 0.727434 16.6467 0.475624 16.4611 0.289963C16.2754 0.104302 16.0236 0 15.761 0Z" fill="black"/>
<path d="M15.761 8.75586C15.4985 8.75586 15.2466 8.86018 15.061 9.04584C14.8753 9.2315 14.771 9.48329 14.771 9.74585V11.7259H10.812C10.5494 11.7259 10.2977 11.8302 10.112 12.0158C9.92634 12.2015 9.82202 12.4533 9.82202 12.7159C9.82202 12.9784 9.92634 13.2302 10.112 13.4159C10.2977 13.6016 10.5494 13.7059 10.812 13.7059H15.761C16.0236 13.7059 16.2754 13.6016 16.4611 13.4159C16.6467 13.2302 16.751 12.9784 16.751 12.7159V9.74585C16.751 9.48329 16.6467 9.2315 16.4611 9.04584C16.2754 8.86018 16.0236 8.75586 15.761 8.75586Z" fill="black"/>
<path d="M5.939 11.7249H1.98V9.7449C1.98 9.48234 1.8757 9.23052 1.69004 9.04486C1.50437 8.8592 1.25256 8.75488 0.99 8.75488C0.727436 8.75488 0.475625 8.8592 0.289964 9.04486C0.104303 9.23052 0 9.48234 0 9.7449L0 12.7139C0 12.9765 0.104303 13.2283 0.289964 13.4139C0.475625 13.5996 0.727436 13.7039 0.99 13.7039H5.939C6.20156 13.7039 6.45337 13.5996 6.63904 13.4139C6.8247 13.2283 6.929 12.9765 6.929 12.7139C6.929 12.4513 6.8247 12.1995 6.63904 12.0139C6.45337 11.8282 6.20156 11.7239 5.939 11.7239V11.7249Z" fill="black"/>
</svg>
