<svg width="36" height="36" viewBox="0 0 36 36" fill="none" xmlns="http://www.w3.org/2000/svg">
<path d="M24.8812 34.5054H10.8275C5.1636 34.5054 1.3584 30.5362 1.3584 24.6297V11.3855C1.3584 5.57147 5.25252 1.50977 10.8275 1.50977H24.8837C30.547 1.50977 34.3531 5.47787 34.354 11.3855V24.6297C34.354 30.5362 30.5476 34.5054 24.8812 34.5054ZM10.8275 4.50929C6.89718 4.50929 4.3581 7.20821 4.3581 11.3853V24.6295C4.3581 28.8712 6.8367 31.5055 10.8275 31.5055H24.8812C28.8138 31.5055 31.3545 28.8066 31.3545 24.6295V11.3855C31.3545 7.20821 28.8138 4.50947 24.8837 4.50947L10.8275 4.50929Z" fill="white"/>
<path d="M18.6403 25.9645V24.3985C19.0473 24.2986 19.4591 24.2325 19.8452 24.0986C20.9561 23.7579 21.9492 23.1128 22.7121 22.2364C23.475 21.3601 23.9772 20.2875 24.1616 19.1403C24.7736 16.0067 22.9636 12.9064 19.9342 11.8982C19.5572 11.7674 19.1562 11.7092 18.7674 11.6113C18.7174 11.5992 18.6383 11.5523 18.6373 11.5213C18.6293 11.0074 18.6313 10.4953 18.6313 9.97852C22.7785 10.3697 25.9312 13.8782 25.8785 18.0434C25.8603 22.151 22.7305 25.5764 18.6403 25.9645Z" fill="white"/>
<path d="M15.0349 17.4044L16.7257 19.0964L20.6316 15.1904L21.4596 16.0184L16.7203 20.7578L14.2019 18.2421L15.0349 17.4044Z" fill="white"/>
<path d="M17.0217 11.5992C15.9032 11.7563 14.8457 12.2045 13.955 12.8989L12.7162 11.7732C13.9413 10.761 15.4409 10.138 17.0226 9.98438L17.0217 11.5992Z" fill="white"/>
<path d="M9.841 17.19C9.97265 15.6267 10.5782 14.1407 11.5767 12.9307L12.7226 14.0855C12.7116 14.1005 12.6765 14.1505 12.6405 14.2004C12.0259 15.0393 11.6191 16.0122 11.4538 17.039C11.4448 17.0941 11.3807 17.183 11.3408 17.1841C10.8458 17.1938 10.3493 17.19 9.841 17.19Z" fill="white"/>
<path d="M9.83057 18.7949H11.3883C11.5582 19.3558 11.6822 19.9158 11.8991 20.4367C12.116 20.9576 12.4292 21.4427 12.699 21.9487L11.5739 23.0424C10.5922 21.8261 9.98639 20.3501 9.83057 18.7949V18.7949Z" fill="white"/>
<path d="M17.0355 26.037C15.4546 25.8664 13.959 25.2334 12.736 24.2172L13.8898 23.1104C14.5074 23.5936 15.2093 23.958 15.9598 24.1851C16.2658 24.2742 16.5817 24.3282 16.8917 24.4062C16.9448 24.4191 17.0287 24.4731 17.0287 24.5061C17.0375 25.009 17.0355 25.511 17.0355 26.037Z" fill="white"/>
</svg>
