<?xml version="1.0" encoding="utf-8"?>
<!-- Generator: Adobe Illustrator 27.4.0, SVG Export Plug-In . SVG Version: 6.00 Build 0)  -->
<svg version="1.1" id="Layer_1" xmlns="http://www.w3.org/2000/svg" xmlns:xlink="http://www.w3.org/1999/xlink" x="0px" y="0px"
	 viewBox="0 0 49 56" style="enable-background:new 0 0 49 56;" xml:space="preserve">
<style type="text/css">
	.st0{fill:#F6F6F9;}
	.st1{fill:#50B7ED;}
	.st2{fill:#37ABDD;}
	.st3{fill:#636363;}
	.st4{fill:#222222;}
	.st5{fill:#D5D4E0;}
	.st6{fill:#AAA8BF;}
</style>
<g>
	<path class="st0" d="M25.1,43.8c-0.5,0-1-0.3-1.3-0.7l-3.1-5.2l-0.1-0.2l-0.2,0c-3.9-0.9-7.4-3.1-9.9-6.2c-1.2-1.6-2.2-3.3-2.9-5.2
		c-0.7-1.9-1-4-1-6c0-4.8,1.9-9.3,5.2-12.7c3.4-3.4,7.9-5.2,12.7-5.2c4.8,0,9.3,1.9,12.7,5.2c3.4,3.4,5.2,7.9,5.2,12.7
		c0,3.8-1.2,7.5-3.5,10.6c-1.1,1.5-2.4,2.8-3.9,3.9c-1.5,1.1-3.2,2-4.9,2.5l-0.2,0.1l-0.1,0.2l-3.4,5.7
		C26.1,43.5,25.6,43.8,25.1,43.8z"/>
	<path class="st1" d="M25.1,43.3c0.2,0,0.6,0,0.9-0.5l3.6-6l0.4-0.1c1.7-0.6,3.3-1.4,4.8-2.5c1.5-1.1,2.7-2.3,3.8-3.8
		c2.2-3,3.4-6.6,3.4-10.3c0-4.7-1.8-9-5.1-12.3c-3.3-3.3-7.7-5.1-12.3-5.1c-4.7,0-9,1.8-12.3,5.1C8.8,11.1,7,15.5,7,20.1
		c0,2,0.3,4,1,5.9c0.7,1.8,1.6,3.5,2.8,5c2.4,3,5.8,5.2,9.6,6.1l0.4,0.1l3.4,5.6C24.5,43.2,24.9,43.3,25.1,43.3z M25.1,44.3
		c-0.7,0-1.3-0.3-1.7-1l-3.1-5.2C12.1,36.1,6,28.8,6,20.1C6,10,14.3,1.7,24.4,1.7c10.2,0,18.4,8.2,18.4,18.4
		c0,8.2-5.3,15.1-12.7,17.5l-3.4,5.7C26.4,44,25.7,44.3,25.1,44.3z"/>
</g>
<path class="st1" d="M18.2,19.6h3.9v5.2h-3.9V19.6z"/>
<path class="st2" d="M20.1,19.6h2v5.2h-2V19.6z"/>
<path class="st3" d="M20.1,32.1c-0.5,0-1-0.2-1.4-0.6s-0.6-0.9-0.6-1.4V23h3.9v7.1c0,0.3-0.1,0.5-0.1,0.8c-0.1,0.2-0.2,0.5-0.4,0.6
	c-0.2,0.2-0.4,0.3-0.6,0.4C20.7,32,20.4,32.1,20.1,32.1z"/>
<path class="st1" d="M28.5,19.6h3.9v5.2h-3.9V19.6z"/>
<path class="st2" d="M30.5,19.6h2v5.2h-2V19.6z"/>
<path class="st3" d="M30.5,32.1c-0.5,0-1-0.2-1.4-0.6s-0.6-0.9-0.6-1.4V23h3.9v7.1c0,0.3-0.1,0.5-0.1,0.8c-0.1,0.2-0.2,0.5-0.4,0.6
	s-0.4,0.3-0.6,0.4C31,32,30.7,32.1,30.5,32.1L30.5,32.1z"/>
<path class="st4" d="M32.5,23v7.1c0,0.3-0.1,0.5-0.1,0.8c-0.1,0.2-0.2,0.5-0.4,0.6c-0.2,0.2-0.4,0.3-0.6,0.4
	c-0.2,0.1-0.5,0.1-0.8,0.1V23H32.5z"/>
<path class="st5" d="M32.5,19.9h-3.3c-0.6,0-1.1-0.2-1.5-0.6c-0.4-0.4-0.6-1-0.6-1.5v-4.2c0-1.3,0.5-2.5,1.4-3.3
	c0.9-0.9,2.1-1.4,3.3-1.4h0.7L32.5,19.9z"/>
<path class="st5" d="M22.9,9.1v5c0,0.2-0.1,0.5-0.3,0.6S22.2,15,22,15s-0.5-0.1-0.6-0.3s-0.3-0.4-0.3-0.6v-5h-1.9v5
	c0,0.2-0.1,0.5-0.3,0.6S18.6,15,18.3,15c-0.2,0-0.5-0.1-0.6-0.3s-0.3-0.4-0.3-0.6v-5h-1.9v7.2c0,1,0.4,2,1.1,2.7s1.7,1.1,2.7,1.1
	h1.6c1,0,2-0.4,2.7-1.1s1.1-1.7,1.1-2.7V9.1H22.9z"/>
<path class="st6" d="M24.8,9.1v7.2c0,0.5-0.1,1-0.3,1.5c-0.2,0.5-0.5,0.9-0.8,1.2c-0.4,0.4-0.8,0.6-1.2,0.8c-0.5,0.2-1,0.3-1.5,0.3
	h-0.8v-11h0.9v5c0,0.2,0.1,0.5,0.3,0.6c0.2,0.2,0.4,0.3,0.6,0.3l0,0c0.2,0,0.5-0.1,0.6-0.3c0.2-0.2,0.3-0.4,0.3-0.6v-5H24.8z"/>
<path class="st4" d="M22.1,23v7.1c0,0.3-0.1,0.5-0.1,0.8c-0.1,0.2-0.2,0.5-0.4,0.6c-0.2,0.2-0.4,0.3-0.6,0.4
	c-0.2,0.1-0.5,0.1-0.8,0.1V23H22.1z"/>
<path class="st6" d="M32.5,8.8v11.1h-2V8.9c0.4-0.1,0.8-0.2,1.2-0.2H32.5z"/>
</svg>
