<?xml version="1.0" encoding="utf-8"?>
<!-- Generator: Adobe Illustrator 27.4.0, SVG Export Plug-In . SVG Version: 6.00 Build 0)  -->
<svg version="1.1" id="Layer_1" xmlns="http://www.w3.org/2000/svg" xmlns:xlink="http://www.w3.org/1999/xlink" x="0px" y="0px"
	 viewBox="0 0 42 42" style="enable-background:new 0 0 42 42;" xml:space="preserve">
<style type="text/css">
	.st0{fill:#50B7ED;}
	.st1{fill:none;stroke:#FFFFFF;stroke-width:2;}
	.st2{fill:none;stroke:#FFFFFF;stroke-width:1.5;stroke-linecap:round;stroke-linejoin:round;}
</style>
<g>
	<path class="st0" d="M21,35c8.8,0,16-7.2,16-16S29.8,3,21,3S5,10.2,5,19S12.2,35,21,35z"/>
	<path class="st1" d="M21,36c9.4,0,17-7.6,17-17c0-9.4-7.6-17-17-17S4,9.6,4,19C4,28.4,11.6,36,21,36z"/>
</g>
<path class="st2" d="M24.4,18c0-0.7-0.2-1.3-0.6-1.9c-0.4-0.6-0.9-1-1.5-1.2c-0.6-0.3-1.3-0.3-1.9-0.2c-0.7,0.1-1.2,0.4-1.7,0.9
	c-0.5,0.5-0.8,1.1-0.9,1.7c-0.1,0.7-0.1,1.3,0.2,1.9c0.3,0.6,0.7,1.1,1.2,1.5c0.6,0.4,1.2,0.6,1.9,0.6c0.9,0,1.7-0.4,2.4-1
	C24.1,19.7,24.4,18.8,24.4,18z"/>
<path class="st2" d="M21.1,29.1c-1.4,0-8.9-5.7-8.9-11.7c0.1-2.3,1-4.5,2.7-6.1C16.5,9.8,18.8,9,21.1,9c2.3-0.1,4.5,0.8,6.2,2.4
	c1.7,1.6,2.7,3.8,2.7,6.1C30,23.4,22.5,29.1,21.1,29.1z"/>
</svg>
