<svg width="24" height="24" viewBox="0 0 24 24" fill="none" xmlns="http://www.w3.org/2000/svg">
<path d="M24 0H0V24H24V0Z" fill="white"/>
<path d="M14.353 2.5C16.1502 2.69953 17.8261 3.50432 19.1054 4.7822C20.3848 6.06008 21.1915 7.73505 21.393 9.532" stroke="#1ED7AA" stroke-width="1.5" stroke-linecap="round" stroke-linejoin="round"/>
<path d="M14.353 6.04297C15.2187 6.21127 16.0144 6.63436 16.638 7.25797C17.2616 7.88158 17.6847 8.67726 17.853 9.54297" stroke="#1ED7AA" stroke-width="1.5" stroke-linecap="round" stroke-linejoin="round"/>
<path fill-rule="evenodd" clip-rule="evenodd" d="M11.031 12.4721C15.02 16.4601 15.925 11.8461 18.465 14.3841C20.913 16.8321 22.322 17.3221 19.218 20.4241C18.829 20.7361 16.36 24.4941 7.68398 15.8241C-0.992017 7.15406 2.76198 4.67206 3.07398 4.28406C6.18398 1.17406 6.66698 2.58906 9.11498 5.03706C11.654 7.57606 7.04298 8.48406 11.031 12.4721Z" stroke="#1ED7AA" stroke-width="1.5" stroke-linecap="round" stroke-linejoin="round"/>
</svg>
