<?xml version="1.0" encoding="utf-8"?>
<!-- Generator: Adobe Illustrator 27.4.0, SVG Export Plug-In . SVG Version: 6.00 Build 0)  -->
<svg version="1.1" id="Layer_1" xmlns="http://www.w3.org/2000/svg" xmlns:xlink="http://www.w3.org/1999/xlink" x="0px" y="0px"
	 viewBox="0 0 24 24" style="enable-background:new 0 0 24 24;" xml:space="preserve">
<style type="text/css">
	.st0{fill:none;stroke:#50B7ED;stroke-width:1.5;stroke-linecap:round;stroke-linejoin:round;}
	.st1{fill:none;stroke:#50B7ED;stroke-width:2;stroke-linecap:round;stroke-linejoin:round;}
</style>
<path class="st0" d="M15.3,4.3c1.1,0.4,1.4,1.9,1.9,2.3c0.4,0.4,0.9,0.6,1.4,0.6c0.9,0,1.7,0.3,2.4,0.9c0.6,0.6,1,1.5,1,2.3v6
	c0,1.2-0.5,2.3-1.4,3.1c-0.9,0.8-2,1.3-3.2,1.3H6.6c-1.2,0-2.3-0.4-3.2-1.3c-0.9-0.8-1.3-2-1.4-3.1v-6c0-0.9,0.4-1.7,1-2.3
	c0.6-0.6,1.5-1,2.4-0.9c0.5,0,1.1-0.2,1.4-0.6c0.4-0.5,0.8-1.9,1.9-2.3C10.9,3.9,13.1,3.9,15.3,4.3L15.3,4.3z"/>
<path class="st1" d="M17.9,10L17.9,10"/>
<path class="st0" d="M15.4,13.8c0-0.9-0.4-1.7-1-2.4c-0.6-0.6-1.5-1-2.4-0.9c-0.4,0-0.9,0.1-1.3,0.2s-0.8,0.4-1.1,0.7
	c-0.3,0.3-0.6,0.7-0.7,1.1c-0.2,0.4-0.3,0.8-0.3,1.3c0,0.4,0.1,0.9,0.3,1.3c0.2,0.4,0.4,0.8,0.7,1.1c0.3,0.3,0.7,0.6,1.1,0.7
	s0.9,0.2,1.3,0.2c0.9,0,1.8-0.3,2.4-0.9S15.4,14.7,15.4,13.8L15.4,13.8z"/>
</svg>
