<?xml version="1.0" encoding="utf-8"?>
<!-- Generator: Adobe Illustrator 27.4.0, SVG Export Plug-In . SVG Version: 6.00 Build 0)  -->
<svg version="1.1" id="Layer_1" xmlns="http://www.w3.org/2000/svg" xmlns:xlink="http://www.w3.org/1999/xlink" x="0px" y="0px"
	 viewBox="0 0 24 24" style="enable-background:new 0 0 24 24;" xml:space="preserve">
<style type="text/css">
	.st0{fill:none;stroke:#50B7ED;stroke-width:1.5;stroke-linecap:round;stroke-linejoin:round;}
</style>
<path class="st0" d="M14.8,3H7.9c-1,0-2,0.3-2.7,1C4.5,4.7,4.1,5.7,4,6.7v10.5c0,0.5,0.1,1,0.3,1.5c0.2,0.5,0.5,0.9,0.8,1.2
	c0.4,0.4,0.8,0.6,1.2,0.8c0.5,0.2,1,0.3,1.5,0.3h8.3c1,0,2-0.4,2.7-1.1c0.7-0.7,1.1-1.7,1.1-2.7v-9L14.8,3z"/>
<path class="st0" d="M14.5,3v2.8c0,0.7,0.3,1.3,0.8,1.8c0.5,0.5,1.2,0.7,1.8,0.7H20"/>
<path class="st0" d="M11.6,10v5.9"/>
<path class="st0" d="M14,12.3L11.6,10l-2.4,2.3"/>
</svg>
