<svg width="24" height="24" viewBox="0 0 24 24" fill="none" xmlns="http://www.w3.org/2000/svg">
<path fill-rule="evenodd" clip-rule="evenodd" d="M16.686 1.75195H7.31C4.05 1.75195 2 4.06395 2 7.33695V16.164C2 19.436 4.038 21.749 7.311 21.749H16.681C19.959 21.749 21.996 19.437 21.996 16.164V7.33695C22 4.06395 19.961 1.75195 16.686 1.75195Z" stroke="#989898" stroke-width="2" stroke-linecap="round" stroke-linejoin="round"/>
<path fill-rule="evenodd" clip-rule="evenodd" d="M10.618 8.29102C10.618 8.68658 10.5007 9.07326 10.2809 9.40216C10.0612 9.73105 9.74882 9.9874 9.38336 10.1388C9.01791 10.2902 8.61578 10.3298 8.22782 10.2526C7.83985 10.1754 7.48349 9.98493 7.20378 9.70523C6.92408 9.42552 6.7336 9.06916 6.65643 8.6812C6.57926 8.29323 6.61886 7.8911 6.77024 7.52565C6.92161 7.1602 7.17796 6.84784 7.50686 6.62808C7.83575 6.40831 8.22243 6.29102 8.618 6.29102C9.14843 6.29102 9.65714 6.50173 10.0322 6.8768C10.4073 7.25187 10.618 7.76058 10.618 8.29102Z" stroke="#989898" stroke-width="2" stroke-linecap="round" stroke-linejoin="round"/>
<path d="M22 14.9733C21 13.9443 19.076 11.8643 16.985 11.8643C14.894 11.8643 13.685 16.4513 11.674 16.4513C9.663 16.4513 7.834 14.3773 6.221 15.7073C4.98188 16.8934 3.9248 18.2561 3.084 19.7513" stroke="#989898" stroke-width="2" stroke-linecap="round" stroke-linejoin="round"/>
</svg>
