<?xml version="1.0" encoding="utf-8"?>
<!-- Generator: Adobe Illustrator 27.4.0, SVG Export Plug-In . SVG Version: 6.00 Build 0)  -->
<svg version="1.1" id="Layer_1" xmlns="http://www.w3.org/2000/svg" xmlns:xlink="http://www.w3.org/1999/xlink" x="0px" y="0px"
	 viewBox="0 0 24 24" style="enable-background:new 0 0 24 24;" xml:space="preserve">
<style type="text/css">
	.st0{fill:none;stroke:#50B7ED;stroke-width:1.5;stroke-linecap:round;stroke-linejoin:round;}
</style>
<path class="st0" d="M16.2,3H7.8C4.8,3,3,5.1,3,8V16c0,2.9,1.8,5,4.8,5h8.4c3,0,4.8-2.1,4.8-5V8C21,5.1,19.2,3,16.2,3z"/>
<path class="st0" d="M10.8,8.9c0,0.4-0.1,0.7-0.3,1c-0.2,0.3-0.5,0.5-0.8,0.7c-0.3,0.1-0.7,0.2-1.1,0.1c-0.4-0.1-0.7-0.2-0.9-0.5
	C7.4,10,7.2,9.6,7.2,9.3c-0.1-0.4,0-0.7,0.1-1.1c0.1-0.3,0.4-0.6,0.7-0.8c0.3-0.2,0.7-0.3,1-0.3c0.5,0,1,0.2,1.3,0.5
	C10.6,7.9,10.8,8.4,10.8,8.9L10.8,8.9z"/>
<path class="st0" d="M21,14.7c-0.9-1-2.6-2.9-4.5-2.9s-3,4.2-4.8,4.2s-3.5-1.9-4.9-0.7c-1.1,1.1-2.1,2.4-2.8,3.7"/>
</svg>
