<?xml version="1.0" encoding="utf-8"?>
<!-- Generator: Adobe Illustrator 27.4.0, SVG Export Plug-In . SVG Version: 6.00 Build 0)  -->
<svg version="1.1" id="Layer_1" xmlns="http://www.w3.org/2000/svg" xmlns:xlink="http://www.w3.org/1999/xlink" x="0px" y="0px"
	 viewBox="0 0 24 24" style="enable-background:new 0 0 24 24;" xml:space="preserve">
<style type="text/css">
	.st0{fill:#50B7ED;}
</style>
<path class="st0" d="M14.9,6.8c0.3,0,0.6-0.1,0.9-0.3s0.5-0.4,0.6-0.7s0.2-0.6,0.1-1c-0.1-0.3-0.2-0.6-0.5-0.8
	c-0.2-0.2-0.5-0.4-0.8-0.5c-0.3-0.1-0.7,0-1,0.1c-0.3,0.1-0.6,0.3-0.7,0.6c-0.2,0.3-0.3,0.6-0.3,0.9c0,0.4,0.2,0.9,0.5,1.2
	C14.1,6.6,14.5,6.8,14.9,6.8z"/>
<path class="st0" d="M6.2,12.2c-0.8,0-1.6,0.3-2.3,0.7c-0.7,0.5-1.2,1.1-1.5,1.9C2,15.5,2,16.3,2.1,17.1c0.2,0.8,0.6,1.5,1.1,2.1
	c0.6,0.6,1.3,1,2.1,1.1c0.8,0.2,1.6,0.1,2.4-0.2s1.4-0.8,1.9-1.5c0.5-0.7,0.7-1.5,0.7-2.3c0-1.1-0.4-2.2-1.2-2.9
	C8.3,12.6,7.3,12.2,6.2,12.2z M6.2,19.2c-0.8,0-1.5-0.3-2.1-0.8c-0.5-0.5-0.8-1.3-0.8-2.1c0-0.8,0.3-1.5,0.8-2.1
	c0.5-0.5,1.3-0.8,2.1-0.8c0.8,0,1.5,0.3,2.1,0.8c0.5,0.5,0.8,1.3,0.8,2.1c0,0.8-0.3,1.5-0.8,2.1C7.7,18.9,6.9,19.2,6.2,19.2z"/>
<path class="st0" d="M17.8,11.3V9.6c-0.6,0-1.1-0.1-1.6-0.3c-0.5-0.2-1-0.5-1.4-0.9l-1.6-1.6c-0.1-0.2-0.3-0.3-0.5-0.4
	c-0.2-0.1-0.4-0.1-0.6-0.1c-0.2,0-0.4,0-0.6,0.1c-0.2,0.1-0.4,0.2-0.5,0.4L8.5,9.1C8.2,9.4,8,9.9,8,10.3c0,0.4,0.2,0.9,0.5,1.2
	l2.6,2.3V18h1.7v-5.2L11,11l2-2l0.6,0.6c0.5,0.6,1.2,1,1.9,1.3C16.2,11.2,17,11.3,17.8,11.3z"/>
<path class="st0" d="M17.8,12.2c-0.8,0-1.6,0.3-2.3,0.7c-0.7,0.5-1.2,1.1-1.5,1.9c-0.3,0.8-0.4,1.6-0.2,2.4c0.2,0.8,0.6,1.5,1.1,2.1
	c0.6,0.6,1.3,1,2.1,1.1c0.8,0.2,1.6,0.1,2.4-0.2c0.8-0.3,1.4-0.8,1.9-1.5c0.5-0.7,0.7-1.5,0.7-2.3c0-1.1-0.4-2.2-1.2-2.9
	C20,12.6,18.9,12.2,17.8,12.2z M17.8,19.2c-0.6,0-1.1-0.2-1.6-0.5c-0.5-0.3-0.8-0.8-1.1-1.3c-0.2-0.5-0.3-1.1-0.2-1.7
	c0.1-0.6,0.4-1.1,0.8-1.5c0.4-0.4,0.9-0.7,1.5-0.8c0.6-0.1,1.1-0.1,1.7,0.2c0.5,0.2,1,0.6,1.3,1.1c0.3,0.5,0.5,1,0.5,1.6
	c0,0.4-0.1,0.8-0.2,1.1c-0.1,0.4-0.4,0.7-0.6,0.9c-0.3,0.3-0.6,0.5-0.9,0.6C18.6,19.1,18.2,19.2,17.8,19.2z"/>
</svg>
