<svg width="24" height="24" viewBox="0 0 24 24" fill="none" xmlns="http://www.w3.org/2000/svg">
<path d="M14.917 6.77501C15.2448 6.77343 15.5648 6.67477 15.8366 6.49147C16.1084 6.30817 16.3198 6.04847 16.4441 5.74513C16.5684 5.44179 16.6001 5.10843 16.5351 4.78711C16.4701 4.4658 16.3113 4.17095 16.0789 3.93977C15.8465 3.70859 15.5508 3.55146 15.2291 3.48821C14.9074 3.42495 14.5743 3.45841 14.2716 3.58436C13.9689 3.71031 13.7104 3.92311 13.5286 4.19589C13.3467 4.46866 13.2498 4.78919 13.25 5.11701C13.2526 5.55749 13.4294 5.97903 13.7417 6.28965C14.054 6.60028 14.4765 6.77476 14.917 6.77501Z" fill="#989898"/>
<path d="M6.16699 12.165C5.3479 12.1692 4.54839 12.4158 3.86935 12.8739C3.19031 13.332 2.66218 13.981 2.35159 14.7389C2.04101 15.4969 1.9619 16.3298 2.12424 17.1327C2.28657 17.9355 2.68309 18.6723 3.26374 19.25C3.8444 19.8278 4.58318 20.2206 5.38684 20.3788C6.19051 20.5371 7.02305 20.4538 7.77941 20.1394C8.53577 19.825 9.18205 19.2936 9.6367 18.6122C10.0913 17.9309 10.334 17.1301 10.334 16.311C10.3279 15.2097 9.88628 14.1555 9.10553 13.3787C8.32478 12.6018 7.26836 12.1656 6.16699 12.165ZM6.16699 19.214C5.39787 19.214 4.66024 18.9085 4.11638 18.3647C3.57253 17.8208 3.26699 17.0832 3.26699 16.314C3.26699 15.5449 3.57253 14.8073 4.11638 14.2634C4.66024 13.7196 5.39787 13.414 6.16699 13.414C6.93612 13.414 7.67375 13.7196 8.2176 14.2634C8.76146 14.8073 9.06699 15.5449 9.06699 16.314C9.06699 17.0832 8.76146 17.8208 8.2176 18.3647C7.67375 18.9085 6.93612 19.214 6.16699 19.214Z" fill="#989898"/>
<path d="M17.792 11.2941V9.63514C17.2306 9.64762 16.6724 9.54791 16.15 9.34185C15.6277 9.13579 15.1517 8.82753 14.75 8.43513L13.125 6.85914C12.9783 6.70205 12.8009 6.57679 12.6037 6.49116C12.4066 6.40552 12.194 6.36133 11.979 6.36133C11.7641 6.36133 11.5514 6.40552 11.3543 6.49116C11.1572 6.57679 10.9797 6.70205 10.833 6.85914L8.54102 9.13914C8.22766 9.44499 8.04793 9.86232 8.04102 10.3001C8.0563 10.7476 8.23405 11.1742 8.54102 11.5001L11.166 13.8221V17.9681H12.833V12.7851L11 10.9611L12.958 8.97114L13.583 9.59314C14.1315 10.1487 14.7879 10.5861 15.5117 10.8787C16.2355 11.1712 17.0115 11.3126 17.792 11.2941Z" fill="#989898"/>
<path d="M17.834 12.165C17.0149 12.1692 16.2154 12.4158 15.5363 12.8739C14.8573 13.332 14.3292 13.981 14.0186 14.7389C13.708 15.4969 13.6289 16.3298 13.7912 17.1327C13.9536 17.9355 14.3501 18.6723 14.9307 19.25C15.5114 19.8278 16.2502 20.2206 17.0538 20.3788C17.8575 20.5371 18.69 20.4538 19.4464 20.1394C20.2027 19.825 20.849 19.2936 21.3037 18.6122C21.7583 17.9309 22.001 17.1301 22.001 16.311C21.9949 15.2097 21.5533 14.1555 20.7725 13.3787C19.9918 12.6018 18.9354 12.1656 17.834 12.165ZM17.834 19.214C17.2612 19.2107 16.7021 19.0377 16.2275 18.717C15.7528 18.3964 15.3838 17.9423 15.1669 17.4121C14.95 16.8819 14.895 16.2993 15.0088 15.7379C15.1226 15.1765 15.4001 14.6614 15.8064 14.2575C16.2126 13.8536 16.7294 13.5791 17.2914 13.4686C17.8535 13.358 18.4357 13.4165 18.9647 13.6364C19.4936 13.8564 19.9455 14.2281 20.2634 14.7047C20.5813 15.1812 20.751 15.7412 20.751 16.314C20.752 16.6966 20.6772 17.0756 20.5308 17.429C20.3844 17.7825 20.1693 18.1033 19.8979 18.373C19.6266 18.6428 19.3045 18.856 18.9502 19.0004C18.5959 19.1447 18.2165 19.2173 17.834 19.214Z" fill="#989898"/>
</svg>
