<svg width="24" height="24" viewBox="0 0 24 24" fill="none" xmlns="http://www.w3.org/2000/svg">
<path d="M20.612 10.3221L19.112 5.33606C18.9977 4.94809 18.7602 4.60783 18.4355 4.36665C18.1108 4.12547 17.7165 3.99645 17.312 3.99906H6.68C6.27553 3.99645 5.88119 4.12547 5.55649 4.36665C5.23179 4.60783 4.99435 4.94809 4.88 5.33606L3.38 10.3221C2.9842 10.4299 2.63478 10.6647 2.38545 10.9905C2.13612 11.3162 2.0007 11.7148 2 12.1251L2 17.7501C2.00053 18.0814 2.13239 18.3991 2.3667 18.6334C2.60101 18.8677 2.91864 18.9995 3.25 19.0001V19.6251C3.25053 20.1222 3.44824 20.5988 3.79976 20.9503C4.15128 21.3018 4.62788 21.4995 5.125 21.5001H6.375C6.87212 21.4995 7.34872 21.3018 7.70024 20.9503C8.05176 20.5988 8.24947 20.1222 8.25 19.6251V19.0001H15.75V19.6251C15.7505 20.1222 15.9482 20.5988 16.2998 20.9503C16.6513 21.3018 17.1279 21.4995 17.625 21.5001H18.875C19.3721 21.4995 19.8487 21.3018 20.2002 20.9503C20.5518 20.5988 20.7495 20.1222 20.75 19.6251V19.0001C21.0814 18.9995 21.399 18.8677 21.6333 18.6334C21.8676 18.3991 21.9995 18.0814 22 17.7501V12.1251C21.9982 11.7143 21.8613 11.3156 21.6105 10.9903C21.3596 10.665 21.0088 10.4313 20.612 10.3251V10.3221ZM6.081 5.69606C6.11901 5.56665 6.19812 5.45312 6.30637 5.37266C6.41462 5.29219 6.54612 5.24916 6.681 5.25006H17.32C17.4549 5.24916 17.5864 5.29219 17.6946 5.37266C17.8029 5.45312 17.882 5.56665 17.92 5.69606L19.286 10.2501H4.715L6.081 5.69606ZM7 19.6251C7 19.7908 6.93415 19.9498 6.81694 20.067C6.69973 20.1842 6.54076 20.2501 6.375 20.2501H5.125C4.95924 20.2501 4.80027 20.1842 4.68306 20.067C4.56585 19.9498 4.5 19.7908 4.5 19.6251V19.0001H7V19.6251ZM19.5 19.6251C19.5 19.7908 19.4342 19.9498 19.3169 20.067C19.1997 20.1842 19.0408 20.2501 18.875 20.2501H17.625C17.4592 20.2501 17.3003 20.1842 17.1831 20.067C17.0658 19.9498 17 19.7908 17 19.6251V19.0001H19.5V19.6251ZM3.25 17.7501V12.1251C3.25 11.9593 3.31585 11.8003 3.43306 11.6831C3.55027 11.5659 3.70924 11.5001 3.875 11.5001H20.125C20.2908 11.5001 20.4497 11.5659 20.5669 11.6831C20.6842 11.8003 20.75 11.9593 20.75 12.1251V17.7501H3.25Z" fill="#989898"/>
<path d="M6.448 13.043C6.07716 13.043 5.71465 13.153 5.40631 13.359C5.09796 13.565 4.85764 13.8578 4.71572 14.2004C4.57381 14.5431 4.53668 14.9201 4.60903 15.2838C4.68137 15.6475 4.85995 15.9816 5.12217 16.2438C5.3844 16.506 5.7185 16.6846 6.08221 16.757C6.44592 16.8293 6.82292 16.7922 7.16553 16.6502C7.50814 16.5083 7.80098 16.268 8.00701 15.9597C8.21303 15.6513 8.323 15.2888 8.323 14.918C8.32247 14.4209 8.12476 13.9443 7.77324 13.5927C7.42173 13.2412 6.94512 13.0435 6.448 13.043ZM6.448 15.543C6.32439 15.543 6.20355 15.5063 6.10077 15.4377C5.99799 15.369 5.91788 15.2714 5.87058 15.1572C5.82327 15.043 5.81089 14.9173 5.83501 14.7961C5.85913 14.6748 5.91865 14.5635 6.00606 14.476C6.09347 14.3886 6.20483 14.3291 6.32607 14.305C6.44731 14.2809 6.57297 14.2932 6.68717 14.3405C6.80138 14.3879 6.89899 14.468 6.96767 14.5707C7.03635 14.6735 7.073 14.7944 7.073 14.918C7.073 15.0837 7.00715 15.2427 6.88994 15.3599C6.77273 15.4771 6.61376 15.543 6.448 15.543Z" fill="#989898"/>
<path d="M18.0281 13.043C17.6572 13.043 17.2947 13.153 16.9864 13.359C16.678 13.565 16.4377 13.8578 16.2958 14.2004C16.1539 14.5431 16.1168 14.9201 16.1891 15.2838C16.2615 15.6475 16.44 15.9816 16.7023 16.2438C16.9645 16.506 17.2986 16.6846 17.6623 16.757C18.026 16.8293 18.403 16.7922 18.7456 16.6502C19.0882 16.5083 19.3811 16.268 19.5871 15.9597C19.7931 15.6513 19.9031 15.2888 19.9031 14.918C19.9025 14.4209 19.7048 13.9443 19.3533 13.5927C19.0018 13.2412 18.5252 13.0435 18.0281 13.043ZM18.0281 15.543C17.9045 15.543 17.7836 15.5063 17.6808 15.4377C17.5781 15.369 17.4979 15.2714 17.4506 15.1572C17.4033 15.043 17.391 14.9173 17.4151 14.7961C17.4392 14.6748 17.4987 14.5635 17.5861 14.476C17.6735 14.3886 17.7849 14.3291 17.9061 14.305C18.0274 14.2809 18.1531 14.2932 18.2673 14.3405C18.3815 14.3879 18.4791 14.468 18.5477 14.5707C18.6164 14.6735 18.6531 14.7944 18.6531 14.918C18.6531 15.0837 18.5872 15.2427 18.47 15.3599C18.3528 15.4771 18.1938 15.543 18.0281 15.543Z" fill="#989898"/>
</svg>
