<?xml version="1.0" encoding="utf-8"?>
<!-- Generator: Adobe Illustrator 27.4.0, SVG Export Plug-In . SVG Version: 6.00 Build 0)  -->
<svg version="1.1" id="Layer_1" xmlns="http://www.w3.org/2000/svg" xmlns:xlink="http://www.w3.org/1999/xlink" x="0px" y="0px"
	 viewBox="0 0 24 24" style="enable-background:new 0 0 24 24;" xml:space="preserve">
<style type="text/css">
	.st0{fill:#50B7ED;}
</style>
<path class="st0" d="M20.6,10.3l-1.5-5c-0.1-0.4-0.4-0.7-0.7-1C18.1,4.1,17.7,4,17.3,4H6.7C6.3,4,5.9,4.1,5.6,4.4S5,4.9,4.9,5.3
	l-1.5,5c-0.4,0.1-0.7,0.3-1,0.7C2.1,11.3,2,11.7,2,12.1v5.6c0,0.3,0.1,0.6,0.4,0.9C2.6,18.9,2.9,19,3.2,19v0.6c0,0.5,0.2,1,0.5,1.3
	s0.8,0.5,1.3,0.5h1.2c0.5,0,1-0.2,1.3-0.5c0.4-0.4,0.5-0.8,0.5-1.3V19h7.5v0.6c0,0.5,0.2,1,0.5,1.3c0.4,0.4,0.8,0.5,1.3,0.5h1.2
	c0.5,0,1-0.2,1.3-0.5c0.4-0.4,0.5-0.8,0.5-1.3V19c0.3,0,0.6-0.1,0.9-0.4c0.2-0.2,0.4-0.6,0.4-0.9v-5.6c0-0.4-0.1-0.8-0.4-1.1
	C21.4,10.7,21,10.4,20.6,10.3L20.6,10.3z M6.1,5.7c0-0.1,0.1-0.2,0.2-0.3c0.1-0.1,0.2-0.1,0.4-0.1h10.6c0.1,0,0.3,0,0.4,0.1
	c0.1,0.1,0.2,0.2,0.2,0.3l1.4,4.6H4.7L6.1,5.7z M7,19.6c0,0.2-0.1,0.3-0.2,0.4c-0.1,0.1-0.3,0.2-0.4,0.2H5.1c-0.2,0-0.3-0.1-0.4-0.2
	c-0.1-0.1-0.2-0.3-0.2-0.4V19H7V19.6z M19.5,19.6c0,0.2-0.1,0.3-0.2,0.4c-0.1,0.1-0.3,0.2-0.4,0.2h-1.2c-0.2,0-0.3-0.1-0.4-0.2
	c-0.1-0.1-0.2-0.3-0.2-0.4V19h2.5V19.6z M3.2,17.8v-5.6c0-0.2,0.1-0.3,0.2-0.4c0.1-0.1,0.3-0.2,0.4-0.2h16.2c0.2,0,0.3,0.1,0.4,0.2
	c0.1,0.1,0.2,0.3,0.2,0.4v5.6H3.2z"/>
<path class="st0" d="M6.4,13c-0.4,0-0.7,0.1-1,0.3c-0.3,0.2-0.5,0.5-0.7,0.8c-0.1,0.3-0.2,0.7-0.1,1.1c0.1,0.4,0.3,0.7,0.5,1
	c0.3,0.3,0.6,0.4,1,0.5c0.4,0.1,0.7,0,1.1-0.1C7.5,16.5,7.8,16.3,8,16c0.2-0.3,0.3-0.7,0.3-1c0-0.5-0.2-1-0.5-1.3
	C7.4,13.2,6.9,13,6.4,13z M6.4,15.5c-0.1,0-0.2,0-0.3-0.1c-0.1-0.1-0.2-0.2-0.2-0.3c0-0.1-0.1-0.2,0-0.4c0-0.1,0.1-0.2,0.2-0.3
	c0.1-0.1,0.2-0.1,0.3-0.2c0.1,0,0.2,0,0.4,0c0.1,0,0.2,0.1,0.3,0.2c0.1,0.1,0.1,0.2,0.1,0.3c0,0.2-0.1,0.3-0.2,0.4
	C6.8,15.5,6.6,15.5,6.4,15.5z"/>
<path class="st0" d="M18,13c-0.4,0-0.7,0.1-1,0.3c-0.3,0.2-0.5,0.5-0.7,0.8c-0.1,0.3-0.2,0.7-0.1,1.1c0.1,0.4,0.3,0.7,0.5,1
	c0.3,0.3,0.6,0.4,1,0.5c0.4,0.1,0.7,0,1.1-0.1c0.3-0.1,0.6-0.4,0.8-0.7c0.2-0.3,0.3-0.7,0.3-1c0-0.5-0.2-1-0.5-1.3
	C19,13.2,18.5,13,18,13z M18,15.5c-0.1,0-0.2,0-0.3-0.1c-0.1-0.1-0.2-0.2-0.2-0.3c0-0.1-0.1-0.2,0-0.4c0-0.1,0.1-0.2,0.2-0.3
	c0.1-0.1,0.2-0.1,0.3-0.2c0.1,0,0.2,0,0.4,0c0.1,0,0.2,0.1,0.3,0.2c0.1,0.1,0.1,0.2,0.1,0.3c0,0.2-0.1,0.3-0.2,0.4
	C18.4,15.5,18.2,15.5,18,15.5z"/>
</svg>
