<svg width="20" height="20" viewBox="0 0 20 20" fill="none" xmlns="http://www.w3.org/2000/svg">
<path d="M11.7471 19H19.0001" stroke="#D4D4D4" stroke-width="1.5" stroke-linecap="round" stroke-linejoin="round"/>
<path fill-rule="evenodd" clip-rule="evenodd" d="M10.78 1.81989C10.963 1.59253 11.1893 1.40383 11.4459 1.26479C11.7025 1.12575 11.9841 1.03914 12.2745 1.01001C12.5649 0.980882 12.8581 1.00981 13.1372 1.09512C13.4163 1.18042 13.6756 1.32039 13.9 1.50689L15.629 2.89989C16.1297 3.21543 16.486 3.71543 16.6207 4.29168C16.7555 4.86793 16.6579 5.47406 16.349 5.97889C16.315 6.03289 6.81204 18.2999 6.81204 18.2999C6.6572 18.5004 6.45903 18.6633 6.23235 18.7763C6.00566 18.8894 5.75634 18.9498 5.50304 18.9529L1.86404 18.9999L1.04404 15.4179C0.986828 15.1694 0.985497 14.9114 1.04014 14.6624C1.09479 14.4133 1.20405 14.1796 1.36004 13.9779L10.78 1.81989Z" stroke="#D4D4D4" stroke-width="1.5" stroke-linecap="round" stroke-linejoin="round"/>
<path d="M9.021 4.12598L14.473 8.31298" stroke="#D4D4D4" stroke-width="1.5" stroke-linecap="round" stroke-linejoin="round"/>
</svg>
