<?xml version="1.0" encoding="utf-8"?>
<!-- Generator: Adobe Illustrator 27.4.0, SVG Export Plug-In . SVG Version: 6.00 Build 0)  -->
<svg version="1.1" id="Layer_1" xmlns="http://www.w3.org/2000/svg" xmlns:xlink="http://www.w3.org/1999/xlink" x="0px" y="0px"
	 viewBox="0 0 27 33" style="enable-background:new 0 0 27 33;" xml:space="preserve">
<style type="text/css">
	.st0{fill:none;stroke:#50B7ED;stroke-width:2;stroke-linecap:round;stroke-linejoin:round;}
</style>
<path class="st0" d="M17.9,14.5c0-1.1-0.4-2.1-1.1-2.9c-0.7-0.8-1.8-1.2-2.9-1.3c-1.1,0-2.1,0.5-2.9,1.3c-0.7,0.8-1.2,1.8-1.1,2.9
	c0,1.1,0.4,2.1,1.1,2.9c0.7,0.8,1.8,1.2,2.9,1.3c1.1,0,2.1-0.5,2.9-1.3C17.5,16.6,18,15.5,17.9,14.5L17.9,14.5z"/>
<path class="st0" d="M13.9,31.9c-1.9,0-12-8.5-12-17.3C2,7.6,7.3,2,13.9,2c6.6,0,12,5.6,12,12.6C25.9,23.4,15.9,31.9,13.9,31.9z"/>
</svg>
