<svg width="24" height="24" viewBox="0 0 24 24" fill="none" xmlns="http://www.w3.org/2000/svg">
<path d="M18.722 12.347C18.3954 12.3468 18.0707 12.396 17.759 12.493L17.317 11.621C17.8726 11.4213 18.4646 11.3433 19.053 11.392C19.1292 11.3979 19.2059 11.3881 19.2782 11.3631C19.3505 11.338 19.4168 11.2984 19.4731 11.2466C19.5294 11.1948 19.5744 11.132 19.6054 11.062C19.6363 10.9921 19.6525 10.9165 19.653 10.84L19.641 9.82604C19.605 9.65204 18.741 5.61704 14.876 5.08004C14.779 5.06717 14.6804 5.08006 14.59 5.1174C14.4996 5.15474 14.4207 5.21521 14.3611 5.29275C14.3015 5.37029 14.2633 5.46215 14.2505 5.5591C14.2377 5.65605 14.2506 5.75466 14.288 5.84504C14.379 6.05404 14.473 6.30304 14.564 6.56704L13.657 6.05403C13.5934 6.01363 13.5222 5.98657 13.4478 5.97451C13.3734 5.96244 13.2974 5.96563 13.2243 5.98386C13.1512 6.00209 13.0825 6.035 13.0225 6.08058C12.9625 6.12616 12.9124 6.18345 12.8752 6.249C12.838 6.31454 12.8146 6.38695 12.8062 6.46184C12.7979 6.53673 12.8049 6.61253 12.8267 6.68464C12.8486 6.75675 12.8849 6.82367 12.9334 6.88133C12.9819 6.93898 13.0416 6.98618 13.109 7.02004L14.967 8.06903C15.0267 8.35876 15.0602 8.6533 15.067 8.94904C14.4024 8.66441 13.6703 8.57559 12.957 8.69303C12.0429 8.88164 11.2316 9.40347 10.681 10.157C9.19796 9.45704 4.37296 7.46304 2.18096 10.149C2.10086 10.2486 2.05649 10.3722 2.05496 10.5V11.964C2.05477 12.0668 2.08305 12.1676 2.13667 12.2552C2.1903 12.3429 2.26716 12.414 2.35873 12.4606C2.4503 12.5072 2.553 12.5275 2.65543 12.5193C2.75785 12.5111 2.85599 12.4747 2.93896 12.414C3.62753 11.9074 4.46164 11.6375 5.31645 11.6445C6.17127 11.6515 7.00082 11.9352 7.68096 12.453L7.18096 12.953C6.57979 12.5301 5.85399 12.3212 5.11994 12.36C4.38589 12.3987 3.68612 12.6829 3.13284 13.1668C2.57956 13.6508 2.20482 14.3065 2.06871 15.0289C1.93259 15.7512 2.04299 16.4983 2.3822 17.1505C2.72142 17.8026 3.26979 18.3219 3.93939 18.6252C4.60899 18.9284 5.36103 18.998 6.07491 18.8229C6.7888 18.6477 7.42318 18.2378 7.87634 17.6591C8.32949 17.0803 8.57516 16.3661 8.57396 15.631C8.57472 14.9521 8.36241 14.29 7.96696 13.738L8.46696 13.238C8.99228 13.9278 9.27651 14.771 9.27596 15.638C9.27596 15.7855 9.33454 15.9269 9.43881 16.0312C9.54308 16.1355 9.6845 16.194 9.83196 16.194H13.9C14.0474 16.194 14.1888 16.1355 14.2931 16.0312C14.3974 15.9269 14.456 15.7855 14.456 15.638C14.4557 14.9446 14.6253 14.2617 14.9499 13.649C15.2745 13.0363 15.7442 12.5124 16.318 12.123L16.76 13.003C16.138 13.4696 15.7023 14.1424 15.5311 14.9008C15.3598 15.6593 15.464 16.4539 15.8251 17.1426C16.1862 17.8312 16.7807 18.3688 17.502 18.6592C18.2233 18.9495 19.0244 18.9737 19.7619 18.7274C20.4994 18.4811 21.1251 17.9803 21.5271 17.3147C21.9291 16.6491 22.0811 15.8622 21.9559 15.0948C21.8307 14.3274 21.4364 13.6296 20.8437 13.1263C20.251 12.6231 19.4985 12.3472 18.721 12.348L18.722 12.347ZM5.29396 17.807C4.95985 17.8076 4.6301 17.7312 4.33031 17.5837C4.03053 17.4362 3.76877 17.2216 3.56537 16.9565C3.36197 16.6915 3.2224 16.3831 3.1575 16.0553C3.0926 15.7276 3.10411 15.3893 3.19115 15.0667C3.27818 14.7441 3.43839 14.446 3.65934 14.1954C3.88029 13.9447 4.15603 13.7484 4.46516 13.6216C4.77428 13.4949 5.10846 13.441 5.44176 13.4643C5.77506 13.4876 6.0985 13.5875 6.38696 13.756L4.89996 15.239C4.84842 15.2906 4.80753 15.3518 4.77964 15.4191C4.75174 15.4865 4.73738 15.5586 4.73738 15.6315C4.73738 15.7788 4.79587 15.9199 4.89996 16.024C5.00406 16.1281 5.14525 16.1866 5.29246 16.1866C5.43968 16.1866 5.58087 16.1281 5.68496 16.024L7.16796 14.541C7.36447 14.8717 7.46811 15.2493 7.46796 15.634C7.46743 16.2104 7.23819 16.7629 6.83057 17.1703C6.42295 17.5778 5.87029 17.8068 5.29396 17.807ZM13.385 15.077H10.367C10.2288 13.8292 9.63567 12.6759 8.70096 11.8377C7.76625 10.9995 6.55547 10.535 5.29996 10.533C4.56882 10.5317 3.84611 10.6893 3.18196 10.995V10.711C5.25296 8.54503 10.551 11.326 10.606 11.358C10.7273 11.4229 10.8684 11.4403 11.0019 11.4069C11.1353 11.3734 11.2516 11.2915 11.328 11.177C11.523 10.834 11.7858 10.5343 12.1004 10.2962C12.4151 10.0581 12.7749 9.88656 13.158 9.79203C13.8575 9.69831 14.5674 9.85946 15.158 10.246C15.225 10.2931 15.3016 10.3248 15.3822 10.3389C15.4629 10.353 15.5457 10.3492 15.6247 10.3277C15.7037 10.3062 15.7771 10.2676 15.8395 10.2146C15.9019 10.1616 15.9519 10.0955 15.986 10.021C16.416 9.06604 16.033 7.47703 15.694 6.43103C16.4099 6.76797 17.0393 7.26419 17.5339 7.88175C18.0286 8.4993 18.3755 9.22183 18.548 9.99404V10.266C17.2516 10.3097 16.0148 10.8208 15.0659 11.7051C14.1169 12.5893 13.5199 13.787 13.385 15.077ZM18.722 17.807C18.2805 17.808 17.8492 17.6744 17.4856 17.424C17.122 17.1735 16.8434 16.8182 16.687 16.4054C16.5305 15.9925 16.5037 15.5418 16.61 15.1133C16.7163 14.6848 16.9507 14.2989 17.282 14.007L18.225 15.881C18.2947 16.0063 18.4101 16.0997 18.5472 16.1417C18.6842 16.1837 18.8322 16.1711 18.9601 16.1065C19.088 16.0419 19.186 15.9303 19.2335 15.795C19.281 15.6598 19.2744 15.5115 19.215 15.381L18.268 13.503C18.4159 13.4714 18.5667 13.4556 18.718 13.456C19.2869 13.4682 19.8284 13.7028 20.2264 14.1095C20.6244 14.5161 20.8473 15.0625 20.8473 15.6315C20.8473 16.2006 20.6244 16.747 20.2264 17.1536C19.8284 17.5603 19.2869 17.7948 18.718 17.807H18.722Z" fill="#989898"/>
</svg>
