<?xml version="1.0" encoding="utf-8"?>
<!-- Generator: Adobe Illustrator 27.4.0, SVG Export Plug-In . SVG Version: 6.00 Build 0)  -->
<svg version="1.1" id="Layer_1" xmlns="http://www.w3.org/2000/svg" xmlns:xlink="http://www.w3.org/1999/xlink" x="0px" y="0px"
	 viewBox="0 0 24 24" style="enable-background:new 0 0 24 24;" xml:space="preserve">
<style type="text/css">
	.st0{fill:none;stroke:#50B7ED;stroke-width:2;stroke-linecap:round;stroke-linejoin:round;}
</style>
<path class="st0" d="M16.6,9.4V7.3c0-0.6-0.1-1.2-0.3-1.7c-0.2-0.6-0.6-1.1-1-1.5c-0.4-0.4-0.9-0.8-1.5-1c-0.6-0.2-1.1-0.3-1.7-0.4
	c-0.6,0-1.2,0.1-1.7,0.3c-0.6,0.2-1.1,0.6-1.5,1c-0.9,0.9-1.3,2-1.3,3.2v2.2"/>
<path class="st0" d="M15.8,21.2H8.2c-1,0-2-0.4-2.7-1.1c-0.7-0.7-1.1-1.7-1.1-2.7v-4.3c0-1,0.4-2,1.1-2.7c0.7-0.7,1.7-1.1,2.7-1.1
	h7.6c0.5,0,1,0.1,1.5,0.3c0.5,0.2,0.9,0.5,1.2,0.8c0.4,0.4,0.6,0.8,0.8,1.2c0.2,0.5,0.3,1,0.3,1.5v4.3c0,0.5-0.1,1-0.3,1.5
	c-0.2,0.5-0.5,0.9-0.8,1.2c-0.4,0.4-0.8,0.6-1.2,0.8C16.8,21.2,16.3,21.2,15.8,21.2L15.8,21.2z"/>
<path class="st0" d="M12,14.2v2.2"/>
</svg>
