<?xml version="1.0" encoding="utf-8"?>
<!-- Generator: Adobe Illustrator 27.4.0, SVG Export Plug-In . SVG Version: 6.00 Build 0)  -->
<svg version="1.1" id="Layer_1" xmlns="http://www.w3.org/2000/svg" xmlns:xlink="http://www.w3.org/1999/xlink" x="0px" y="0px"
	 viewBox="0 0 22 22" style="enable-background:new 0 0 22 22;" xml:space="preserve">
<style type="text/css">
	.st0{fill:#FFFFFF;}
	.st1{fill:none;stroke:#50B7ED;}
	.st2{fill:#50B7ED;}
</style>
<path class="st0" d="M11,22c6.1,0,11-4.9,11-11c0-6.1-4.9-11-11-11C4.9,0,0,4.9,0,11C0,17.1,4.9,22,11,22z"/>
<path class="st1" d="M11,21.5c5.8,0,10.5-4.7,10.5-10.5c0-5.8-4.7-10.5-10.5-10.5C5.2,0.5,0.5,5.2,0.5,11C0.5,16.8,5.2,21.5,11,21.5
	z"/>
<path class="st2" d="M11,17c3.3,0,6-2.7,6-6c0-3.3-2.7-6-6-6c-3.3,0-6,2.7-6,6C5,14.3,7.7,17,11,17z"/>
</svg>
