<?xml version="1.0" encoding="utf-8"?>
<!-- Generator: Adobe Illustrator 27.4.0, SVG Export Plug-In . SVG Version: 6.00 Build 0)  -->
<svg version="1.1" id="Layer_1" xmlns="http://www.w3.org/2000/svg" xmlns:xlink="http://www.w3.org/1999/xlink" x="0px" y="0px"
	 viewBox="0 0 17 21" style="enable-background:new 0 0 17 21;" xml:space="preserve">
<style type="text/css">
	.st0{fill:none;stroke:#50B7ED;stroke-width:2;stroke-linecap:round;stroke-linejoin:round;}
</style>
<path class="st0" d="M8.2,13.5c-3.9,0-7.2,0.6-7.2,2.9s3.3,2.9,7.2,2.9c3.9,0,7.2-0.6,7.2-2.9S12.1,13.5,8.2,13.5z"/>
<path class="st0" d="M8.2,10.2c1.2,0,2.4-0.5,3.2-1.3c0.9-0.9,1.3-2,1.3-3.2c0-1.2-0.5-2.4-1.3-3.2C10.5,1.5,9.4,1,8.2,1
	C6.9,1,5.8,1.5,4.9,2.4c-0.9,0.9-1.3,2-1.3,3.2c0,1.2,0.5,2.4,1.3,3.2C5.8,9.7,6.9,10.2,8.2,10.2L8.2,10.2z"/>
</svg>
