<svg width="70" height="65" viewBox="0 0 70 65" fill="none" xmlns="http://www.w3.org/2000/svg">
<path d="M66.797 40.9859H53.302C50.9227 40.9859 48.6409 40.0408 46.9585 38.3584C45.2762 36.676 44.331 34.3942 44.331 32.0149C44.331 29.6357 45.2762 27.3539 46.9585 25.6715C48.6409 23.9891 50.9227 23.0439 53.302 23.0439H66.797" stroke="white" stroke-width="5" stroke-linecap="round" stroke-linejoin="round"/>
<path d="M54.829 31.8096H53.79" stroke="white" stroke-width="5" stroke-linecap="round" stroke-linejoin="round"/>
<path fill-rule="evenodd" clip-rule="evenodd" d="M20.492 3H49.3C51.5977 2.99908 53.8731 3.45084 55.9962 4.32947C58.1193 5.2081 60.0485 6.49639 61.6736 8.12075C63.2987 9.74511 64.5879 11.6737 65.4675 13.7964C66.3471 15.9191 66.7999 18.1943 66.8 20.492V44.416C66.7999 46.7137 66.3471 48.9889 65.4675 51.1116C64.5879 53.2343 63.2987 55.1629 61.6736 56.7872C60.0485 58.4116 58.1193 59.6999 55.9962 60.5785C53.8731 61.4572 51.5977 61.9089 49.3 61.908H20.492C15.8528 61.908 11.4037 60.0651 8.12329 56.7847C4.8429 53.5043 3 49.0552 3 44.416V20.492C3 15.8528 4.8429 11.4037 8.12329 8.12329C11.4037 4.8429 15.8528 3 20.492 3V3Z" stroke="white" stroke-width="5" stroke-linecap="round" stroke-linejoin="round"/>
<path d="M18.119 18.127H36.119" stroke="white" stroke-width="5" stroke-linecap="round" stroke-linejoin="round"/>
</svg>
