<?xml version="1.0" encoding="utf-8"?>
<!-- Generator: Adobe Illustrator 27.4.0, SVG Export Plug-In . SVG Version: 6.00 Build 0)  -->
<svg version="1.1" id="Layer_1" xmlns="http://www.w3.org/2000/svg" xmlns:xlink="http://www.w3.org/1999/xlink" x="0px" y="0px"
	 viewBox="0 0 24 24" style="enable-background:new 0 0 24 24;" xml:space="preserve">
<style type="text/css">
	.st0{fill:none;stroke:#50B7ED;stroke-width:1.5;stroke-linecap:round;stroke-linejoin:round;}
</style>
<path class="st0" d="M2.9,9.4h18.2"/>
<path class="st0" d="M16.5,13.3L16.5,13.3"/>
<path class="st0" d="M12,13.3L12,13.3"/>
<path class="st0" d="M7.5,13.3L7.5,13.3"/>
<path class="st0" d="M16.5,17.3L16.5,17.3"/>
<path class="st0" d="M12,17.3L12,17.3"/>
<path class="st0" d="M7.5,17.3L7.5,17.3"/>
<path class="st0" d="M16.1,1.9V5"/>
<path class="st0" d="M7.9,1.9V5"/>
<path class="st0" d="M16.3,3.4H7.7c-3,0-4.9,1.7-4.9,4.7v9.2c0,3.1,1.9,4.8,4.9,4.8h8.6c3,0,4.9-1.7,4.9-4.7V8.1
	C21.2,5,19.3,3.4,16.3,3.4z"/>
</svg>
